# xmcd
#
# Track frame offsets:
#	150
#	5479
#	23201
#	43021
#	60390
#	78172
#	96970
#	113845
#	131452
#	154436
#	172075
#	194886
#	207627
#	225262
#	243671
#	262661
#	277874
#	288449
#	305699
#
# Disc length: 4170 seconds
# Revision: 1
# Processed by: cddbd v1.5.2PL0 Copyright (c) Steve Scherf et al.
# Submitted via: dBpowerAMP V12.0
#
DISCID=0a104813
DTITLE=RomeoSantos,AKAAnthonySantos,Bronx,NYC - Formula, Vol. 2 DeLuxe
DYEAR=2014
DGENRE=Salsa
TTITLE0=Intro feat. Kevin Hart
TTITLE1=Inocente
TTITLE2=Necio feat. Santana
TTITLE3=Amigo
TTITLE4=Cancioncitas de Amor
TTITLE5=Eres Mia
TTITLE6=Odio feat. Drake
TTITLE7=Hilito
TTITLE8=Yo Tambien feat. Marc Anthony
TTITLE9=Fui a Jamaica
TTITLE10=No Tiene La Culpa
TTITLE11=Animales feat. Nicki Minaj
TTITLE12=Propuesta Indecente
TTITLE13=Obra Maestra
TTITLE14=7 Dias
TTITLE15=Si Yo Muero
TTITLE16=Outro
TTITLE17=Trust feat. Tego Calderon
TTITLE18=Mami
EXTD=
EXTT0=
EXTT1=
EXTT2=
EXTT3=
EXTT4=
EXTT5=
EXTT6=
EXTT7=
EXTT8=
EXTT9=
EXTT10=
EXTT11=
EXTT12=
EXTT13=
EXTT14=
EXTT15=
EXTT16=
EXTT17=
EXTT18=
PLAYORDER=
